<svg xmlns="http://www.w3.org/2000/svg" xmlns:xlink="http://www.w3.org/1999/xlink" xmlns:lucid="lucid" width="1750.77"
    height="1160">
    <g transform="translate(-1.4210854715202004e-14 -60.000000000000014)" lucid:page-tab-id="0_0">
        <path d="M0 0h1760v1360H0z" fill="#ddd" />
        <path
            d="M967.7 510.77c0 47.58-38.58 86.15-86.16 86.15s-86.16-38.57-86.16-86.15c0-47.58 38.58-86.15 86.16-86.15s86.15 38.57 86.15 86.15z"
            stroke="#5e5e5e" stroke-width="4" fill="#aaa" />
        <use xlink:href="#a"
            transform="matrix(1,0,0,1,800.3846153846154,429.61538461538464) translate(69.15432098765432 83.99652777777777)" />
        <path
            d="M967.7 769.23c0 47.58-38.58 86.15-86.16 86.15s-86.16-38.57-86.16-86.15c0-47.58 38.58-86.15 86.16-86.15s86.15 38.57 86.15 86.15z"
            stroke="#5e5e5e" stroke-width="4" fill="#aaa" />
        <use xlink:href="#b"
            transform="matrix(1,0,0,1,800.3846153846154,688.0769230769231) translate(69.15432098765432 83.99652777777777)" />
        <path
            d="M536.92 510.77c0 47.58-38.57 86.15-86.15 86.15-47.58 0-86.15-38.57-86.15-86.15 0-47.58 38.57-86.15 86.15-86.15 47.58 0 86.15 38.57 86.15 86.15z"
            stroke="#5e5e5e" stroke-width="4" fill="#ddd" />
        <use xlink:href="#c"
            transform="matrix(1,0,0,1,369.61538461538464,429.61538461538464) translate(62.98148148148148 83.99652777777777)" />
        <path
            d="M536.92 769.23c0 47.58-38.57 86.15-86.15 86.15-47.58 0-86.15-38.57-86.15-86.15 0-47.58 38.57-86.15 86.15-86.15 47.58 0 86.15 38.57 86.15 86.15z"
            stroke="#5e5e5e" stroke-width="4" fill="#ddd" />
        <use xlink:href="#d"
            transform="matrix(1,0,0,1,369.61538461538464,688.0769230769231) translate(62.98148148148148 83.99652777777777)" />
        <path
            d="M1398.46 510.77c0 47.58-38.57 86.15-86.15 86.15-47.57 0-86.15-38.57-86.15-86.15 0-47.58 38.58-86.15 86.16-86.15 47.6 0 86.16 38.57 86.16 86.15z"
            stroke="#5e5e5e" stroke-width="4" fill="#ddd" />
        <use xlink:href="#e"
            transform="matrix(1,0,0,1,1231.1538461538462,429.61538461538464) translate(62.98148148148148 83.99652777777777)" />
        <path
            d="M1398.46 769.23c0 47.58-38.57 86.15-86.15 86.15-47.57 0-86.15-38.57-86.15-86.15 0-47.58 38.58-86.15 86.16-86.15 47.6 0 86.16 38.57 86.16 86.15z"
            stroke="#5e5e5e" stroke-width="4" fill="#ddd" />
        <use xlink:href="#f"
            transform="matrix(1,0,0,1,1231.1538461538462,688.0769230769231) translate(62.98148148148148 83.99652777777777)" />
        <path
            d="M967.7 166.15c0 47.6-38.58 86.16-86.16 86.16s-86.16-38.56-86.16-86.15c0-47.58 38.58-86.15 86.16-86.15s86.15 38.57 86.15 86.15z"
            stroke="#5e5e5e" stroke-width="4" fill="#bbb" />
        <use xlink:href="#g"
            transform="matrix(1,0,0,1,800.3846153846154,85.00000000000001) translate(67.98148148148148 83.99652777777777)" />
        <path
            d="M967.7 1113.85c0 47.58-38.58 86.15-86.16 86.15s-86.16-38.57-86.16-86.15c0-47.6 38.58-86.16 86.16-86.16s86.15 38.56 86.15 86.15z"
            stroke="#5e5e5e" stroke-width="4" fill="#bbb" />
        <use xlink:href="#h"
            transform="matrix(1,0,0,1,800.3846153846154,1032.6923076923076) translate(67.98148148148148 83.99652777777777)" />
        <path d="M539.43 510.77h253.45" stroke="#5e5e5e" stroke-width="4" fill="none" />
        <path d="M539.45 511.77h-1.06l.02-.98v-.4l-.02-.63h1.05zM793.88 510.75v.38l.03.64h-1.04v-2h1.05z"
            fill="#5e5e5e" />
        <path d="M539.43 769.23h253.45" stroke="#5e5e5e" stroke-width="4" fill="none" />
        <path d="M539.45 770.23h-1.06l.02-.98v-.38l-.02-.64h1.05zM793.88 769.2v.4l.03.63h-1.04v-2h1.05z"
            fill="#5e5e5e" />
        <path
            d="M538.45 511.77l.22 10.68.72 11.4 1.16 11.15 1.6 10.9 2.04 10.65 2.44 10.4 2.85 10.2 3.22 9.97 3.63 9.74 4 9.52 4.37 9.3 4.75 9.07 5.1 8.85 5.48 8.62 5.83 8.4 6.18 8.13 6.54 7.9 6.88 7.65 7.23 7.38 7.58 7.1 7.9 6.84 8.25 6.53 8.58 6.23 8.9 5.9 9.22 5.6 9.53 5.23 9.84 4.9 10.14 4.5 10.44 4.14 10.73 3.74 11.03 3.33 11.3 2.9 11.6 2.47 11.84 2 12.12 1.53 12.38 1.04 8.9.4M538.45 511.8l-.02-1.03"
            stroke="#5e5e5e" stroke-width="4" fill="none" />
        <path d="M794 765.1l-.05 2-1.05-.05.1-2z" fill="#5e5e5e" />
        <path
            d="M538.45 768.23l.22-10.68.72-11.4 1.16-11.15 1.6-10.9 2.04-10.65 2.44-10.4 2.85-10.2 3.22-9.97 3.63-9.74 4-9.52 4.37-9.3 4.75-9.07 5.1-8.85 5.48-8.62 5.83-8.4 6.18-8.13 6.54-7.9 6.88-7.65 7.23-7.38 7.58-7.1 7.9-6.84 8.25-6.53 8.58-6.23 8.9-5.9 9.22-5.6 9.53-5.23 9.84-4.9 10.14-4.5 10.44-4.14 10.73-3.74 11.03-3.33 11.3-2.9 11.6-2.47 11.84-2 12.12-1.53 12.38-1.04 8.9-.4M538.45 768.2l-.02 1.03"
            stroke="#5e5e5e" stroke-width="4" fill="none" />
        <path d="M794 514.9l-1 .05-.1-2 1.04-.05z" fill="#5e5e5e" />
        <path d="M970.2 510.77h253.45" stroke="#5e5e5e" stroke-width="4" fill="none" />
        <path d="M970.22 511.77h-1.06l.03-.98v-.4l-.03-.63h1.05zM1224.65 510.75v.38l.03.64h-1.05v-2h1.05z"
            fill="#5e5e5e" />
        <path d="M970.2 769.23h253.45" stroke="#5e5e5e" stroke-width="4" fill="none" />
        <path d="M970.22 770.23h-1.06l.03-.98v-.38l-.03-.64h1.05zM1224.65 769.2v.4l.03.63h-1.05v-2h1.05z"
            fill="#5e5e5e" />
        <path
            d="M969.22 511.77l.22 10.68.72 11.4 1.17 11.15 1.6 10.9 2.04 10.65 2.44 10.4 2.86 10.2 3.23 9.97 3.62 9.74 4 9.52 4.37 9.3 4.74 9.07 5.1 8.85 5.48 8.62 5.83 8.4 6.18 8.13 6.53 7.9 6.9 7.65 7.22 7.38 7.57 7.1 7.9 6.84 8.25 6.53 8.57 6.23 8.9 5.9 9.22 5.6 9.52 5.23 9.84 4.9 10.15 4.5 10.45 4.14 10.73 3.74 11.02 3.33 11.3 2.9 11.6 2.47 11.84 2 12.12 1.53 12.4 1.04 8.88.4M969.22 511.8l-.02-1.03"
            stroke="#5e5e5e" stroke-width="4" fill="none" />
        <path d="M1224.77 765.1l-.06 2-1.03-.05.1-2z" fill="#5e5e5e" />
        <path
            d="M969.22 768.23l.22-10.68.72-11.4 1.17-11.15 1.6-10.9 2.04-10.65 2.44-10.4 2.86-10.2 3.23-9.97 3.62-9.74 4-9.52 4.37-9.3 4.74-9.07 5.1-8.85 5.48-8.62 5.83-8.4 6.18-8.13 6.53-7.9 6.9-7.65 7.22-7.38 7.57-7.1 7.9-6.84 8.25-6.53 8.57-6.23 8.9-5.9 9.22-5.6 9.52-5.23 9.84-4.9 10.15-4.5 10.45-4.14 10.73-3.74 11.02-3.33 11.3-2.9 11.6-2.47 11.84-2 12.12-1.53 12.4-1.04 8.9-.4M969.22 768.2l-.02 1.03"
            stroke="#5e5e5e" stroke-width="4" fill="none" />
        <path d="M1224.78 514.9l-1 .05-.1-2 1.03-.05z" fill="#5e5e5e" />
        <path d="M881.54 254.8v167.32" stroke="#5e5e5e" stroke-width="4" fill="none" />
        <path d="M881.52 253.8h1.02v1.03h-2v-1.05zM882.54 423.14l-.98-.02h-.38l-.64.02v-1.05h2z" fill="#5e5e5e" />
        <path d="M881.54 1025.2V857.87" stroke="#5e5e5e" stroke-width="4" fill="none" />
        <path d="M882.54 1026.22l-.98-.03h-1.02v-1.03h2zM881.52 856.88h.38l.64-.02v1.05h-2v-1.04z" fill="#5e5e5e" />
        <path d="M881.54 599.42v81.16" stroke="#5e5e5e" stroke-width="4" fill="none" />
        <path d="M881.52 598.42h.38l.64-.02v1.05h-2v-1.06zM882.54 681.6l-.98-.02h-.38l-.64.02v-1.05h2z"
            fill="#5e5e5e" />
        <path
            d="M192.3 510.77c0 47.58-38.56 86.15-86.15 86.15-47.58 0-86.15-38.57-86.15-86.15 0-47.58 38.57-86.15 86.15-86.15 47.6 0 86.16 38.57 86.16 86.15z"
            stroke="#5e5e5e" stroke-width="4" fill="#eee" />
        <use xlink:href="#i"
            transform="matrix(1,0,0,1,25.000000000000014,429.61538461538464) translate(63.598765432098766 83.99652777777777)" />
        <path d="M194.8 510.77h167.32" stroke="#5e5e5e" stroke-width="4" fill="none" />
        <path d="M194.83 511.77h-1.05l.03-.98v-1.03h1.03zM363.12 510.75v.38l.02.64h-1.05v-2h1.04z" fill="#5e5e5e" />
        <path
            d="M192.3 769.23c0 47.58-38.56 86.15-86.15 86.15-47.58 0-86.15-38.57-86.15-86.15 0-47.58 38.57-86.15 86.15-86.15 47.6 0 86.16 38.57 86.16 86.15z"
            stroke="#5e5e5e" stroke-width="4" fill="#eee" />
        <use xlink:href="#j"
            transform="matrix(1,0,0,1,25.000000000000014,688.0769230769231) translate(63.598765432098766 83.99652777777777)" />
        <path d="M194.8 769.23h167.32" stroke="#5e5e5e" stroke-width="4" fill="none" />
        <path d="M194.83 770.23h-1.05l.03-.98v-1.02h1.03zM363.12 769.2v.4l.02.63h-1.05v-2h1.04z" fill="#5e5e5e" />
        <path
            d="M1730.77 510.77c0 47.58-38.57 86.15-86.15 86.15-47.6 0-86.16-38.57-86.16-86.15 0-47.58 38.57-86.15 86.16-86.15 47.58 0 86.15 38.57 86.15 86.15z"
            stroke="#5e5e5e" stroke-width="4" fill="#eee" />
        <use xlink:href="#k"
            transform="matrix(1,0,0,1,1563.4615384615383,429.61538461538464) translate(63.598765432098766 83.99652777777777)" />
        <path d="M1400.96 510.77h155" stroke="#5e5e5e" stroke-width="4" fill="none" />
        <path d="M1401 511.77h-1.07l.03-.98v-.4l-.02-.63h1.05zM1556.96 510.75v.38l.02.64h-1.04v-2h1.05z"
            fill="#5e5e5e" />
        <path
            d="M1730.77 769.23c0 47.58-38.57 86.15-86.15 86.15-47.6 0-86.16-38.57-86.16-86.15 0-47.58 38.57-86.15 86.16-86.15 47.58 0 86.15 38.57 86.15 86.15z"
            stroke="#5e5e5e" stroke-width="4" fill="#eee" />
        <use xlink:href="#l"
            transform="matrix(1,0,0,1,1563.4615384615383,688.0769230769231) translate(63.598765432098766 83.99652777777777)" />
        <path d="M1555.96 769.23h-155" stroke="#5e5e5e" stroke-width="4" fill="none" />
        <path d="M1556.96 769.2v.4l.02.63h-1.04v-2h1.05zM1401 770.23h-1.07l.03-.98v-.38l-.02-.64h1.05z"
            fill="#5e5e5e" />
        <path d="M180 240c0 44.18-35.82 80-80 80s-80-35.82-80-80 35.82-80 80-80 80 35.82 80 80z" stroke="#5e5e5e"
            stroke-width="3" fill="#abcabc" />
        <use xlink:href="#m"
            transform="matrix(1,0,0,1,25.000000000000014,165) translate(42.96296296296296 78.71527777777777)" />
        <path d="M180 1040c0 44.18-35.82 80-80 80s-80-35.82-80-80 35.82-80 80-80 80 35.82 80 80z" stroke="#5e5e5e"
            stroke-width="3" fill="#cbacba" />
        <use xlink:href="#n"
            transform="matrix(1,0,0,1,25.000000000000014,965) translate(42.96296296296296 78.71527777777777)" />
        <path d="M1730.77 240c0 44.18-35.82 80-80 80s-80-35.82-80-80 35.82-80 80-80 80 35.82 80 80z" stroke="#5e5e5e"
            stroke-width="3" fill="#abcabc" />
        <use xlink:href="#o"
            transform="matrix(1,0,0,1,1575.7692307692307,165) translate(42.96296296296296 78.71527777777777)" />
        <path d="M1730.77 1040c0 44.18-35.82 80-80 80s-80-35.82-80-80 35.82-80 80-80 80 35.82 80 80z" stroke="#5e5e5e"
            stroke-width="3" fill="#cbacba" />
        <use xlink:href="#p"
            transform="matrix(1,0,0,1,1575.7692307692307,965) translate(42.96296296296296 78.71527777777777)" />
        <path d="M100 322.5v99.84" stroke="#5e5e5e" stroke-width="4" fill="none" />
        <path d="M99.98 321.5H101v1.03h-2v-1.06zM101 423.27h-.35l-1.65.17v-1.12h2z" fill="#5e5e5e" />
        <path d="M100 957.5v-99.85" stroke="#5e5e5e" stroke-width="4" fill="none" />
        <path d="M101 958.53l-.98-.03H99v-1.03h2zM101 856.74v.94h-2v-1.12z" fill="#5e5e5e" />
        <path d="M1650.77 957.5v-99.84" stroke="#5e5e5e" stroke-width="4" fill="none" />
        <path d="M1651.77 958.53l-.98-.03h-1.04v-1.03h2zM1651.77 857.68h-2v-.95h.35l1.65-.17z" fill="#5e5e5e" />
        <path d="M1650.77 322.5v99.85" stroke="#5e5e5e" stroke-width="4" fill="none" />
        <path d="M1650.75 321.5h1.03v1.03h-2v-1.06zM1651.77 423.44l-2-.18v-.93h2z" fill="#5e5e5e" />
        <defs>
            <path fill="#333"
                d="M115-194c55 1 70 41 70 98S169 2 115 4C84 4 66-9 55-30l1 105H24l-1-265h31l2 30c10-21 28-34 59-34zm-8 174c40 0 45-34 45-75s-6-73-45-74c-42 0-51 32-51 76 0 43 10 73 51 73"
                id="q" />
            <path fill="#333" d="M27 0v-27h64v-190l-56 39v-29l58-41h29v221h61V0H27" id="r" />
            <g id="a">
                <use transform="matrix(0.06172839506172839,0,0,0.06172839506172839,0,0)" xlink:href="#q" />
                <use transform="matrix(0.06172839506172839,0,0,0.06172839506172839,12.345679012345679,0)"
                    xlink:href="#r" />
            </g>
            <path fill="#333"
                d="M101-251c82-7 93 87 43 132L82-64C71-53 59-42 53-27h129V0H18c2-99 128-94 128-182 0-28-16-43-45-43s-46 15-49 41l-32-3c6-41 34-60 81-64"
                id="s" />
            <g id="b">
                <use transform="matrix(0.06172839506172839,0,0,0.06172839506172839,0,0)" xlink:href="#q" />
                <use transform="matrix(0.06172839506172839,0,0,0.06172839506172839,12.345679012345679,0)"
                    xlink:href="#s" />
            </g>
            <path fill="#333"
                d="M100-194c63 0 86 42 84 106H49c0 40 14 67 53 68 26 1 43-12 49-29l28 8c-11 28-37 45-77 45C44 4 14-33 15-96c1-61 26-98 85-98zm52 81c6-60-76-77-97-28-3 7-6 17-6 28h103"
                id="t" />
            <g id="c">
                <use transform="matrix(0.06172839506172839,0,0,0.06172839506172839,0,0)" xlink:href="#q" />
                <use transform="matrix(0.06172839506172839,0,0,0.06172839506172839,12.345679012345679,0)"
                    xlink:href="#t" />
                <use transform="matrix(0.06172839506172839,0,0,0.06172839506172839,24.691358024691358,0)"
                    xlink:href="#r" />
            </g>
            <g id="d">
                <use transform="matrix(0.06172839506172839,0,0,0.06172839506172839,0,0)" xlink:href="#q" />
                <use transform="matrix(0.06172839506172839,0,0,0.06172839506172839,12.345679012345679,0)"
                    xlink:href="#t" />
                <use transform="matrix(0.06172839506172839,0,0,0.06172839506172839,24.691358024691358,0)"
                    xlink:href="#s" />
            </g>
            <path fill="#333"
                d="M126-127c33 6 58 20 58 59 0 88-139 92-164 29-3-8-5-16-6-25l32-3c6 27 21 44 54 44 32 0 52-15 52-46 0-38-36-46-79-43v-28c39 1 72-4 72-42 0-27-17-43-46-43-28 0-47 15-49 41l-32-3c6-42 35-63 81-64 48-1 79 21 79 65 0 36-21 52-52 59"
                id="u" />
            <g id="e">
                <use transform="matrix(0.06172839506172839,0,0,0.06172839506172839,0,0)" xlink:href="#q" />
                <use transform="matrix(0.06172839506172839,0,0,0.06172839506172839,12.345679012345679,0)"
                    xlink:href="#t" />
                <use transform="matrix(0.06172839506172839,0,0,0.06172839506172839,24.691358024691358,0)"
                    xlink:href="#u" />
            </g>
            <path fill="#333" d="M155-56V0h-30v-56H8v-25l114-167h33v167h35v25h-35zm-30-156c-27 46-58 90-88 131h88v-131"
                id="v" />
            <g id="f">
                <use transform="matrix(0.06172839506172839,0,0,0.06172839506172839,0,0)" xlink:href="#q" />
                <use transform="matrix(0.06172839506172839,0,0,0.06172839506172839,12.345679012345679,0)"
                    xlink:href="#t" />
                <use transform="matrix(0.06172839506172839,0,0,0.06172839506172839,24.691358024691358,0)"
                    xlink:href="#v" />
            </g>
            <path fill="#333" d="M114-163C36-179 61-72 57 0H25l-1-190h30c1 12-1 29 2 39 6-27 23-49 58-41v29" id="w" />
            <g id="g">
                <use transform="matrix(0.06172839506172839,0,0,0.06172839506172839,0,0)" xlink:href="#w" />
                <use transform="matrix(0.06172839506172839,0,0,0.06172839506172839,7.345679012345679,0)"
                    xlink:href="#w" />
                <use transform="matrix(0.06172839506172839,0,0,0.06172839506172839,14.691358024691358,0)"
                    xlink:href="#r" />
            </g>
            <g id="h">
                <use transform="matrix(0.06172839506172839,0,0,0.06172839506172839,0,0)" xlink:href="#w" />
                <use transform="matrix(0.06172839506172839,0,0,0.06172839506172839,7.345679012345679,0)"
                    xlink:href="#w" />
                <use transform="matrix(0.06172839506172839,0,0,0.06172839506172839,14.691358024691358,0)"
                    xlink:href="#s" />
            </g>
            <path fill="#333"
                d="M96-169c-40 0-48 33-48 73s9 75 48 75c24 0 41-14 43-38l32 2c-6 37-31 61-74 61-59 0-76-41-82-99-10-93 101-131 147-64 4 7 5 14 7 22l-32 3c-4-21-16-35-41-35"
                id="x" />
            <g id="i">
                <use transform="matrix(0.06172839506172839,0,0,0.06172839506172839,0,0)" xlink:href="#x" />
                <use transform="matrix(0.06172839506172839,0,0,0.06172839506172839,11.11111111111111,0)"
                    xlink:href="#t" />
                <use transform="matrix(0.06172839506172839,0,0,0.06172839506172839,23.45679012345679,0)"
                    xlink:href="#r" />
            </g>
            <g id="j">
                <use transform="matrix(0.06172839506172839,0,0,0.06172839506172839,0,0)" xlink:href="#x" />
                <use transform="matrix(0.06172839506172839,0,0,0.06172839506172839,11.11111111111111,0)"
                    xlink:href="#t" />
                <use transform="matrix(0.06172839506172839,0,0,0.06172839506172839,23.45679012345679,0)"
                    xlink:href="#s" />
            </g>
            <g id="k">
                <use transform="matrix(0.06172839506172839,0,0,0.06172839506172839,0,0)" xlink:href="#x" />
                <use transform="matrix(0.06172839506172839,0,0,0.06172839506172839,11.11111111111111,0)"
                    xlink:href="#t" />
                <use transform="matrix(0.06172839506172839,0,0,0.06172839506172839,23.45679012345679,0)"
                    xlink:href="#u" />
            </g>
            <g id="l">
                <use transform="matrix(0.06172839506172839,0,0,0.06172839506172839,0,0)" xlink:href="#x" />
                <use transform="matrix(0.06172839506172839,0,0,0.06172839506172839,11.11111111111111,0)"
                    xlink:href="#t" />
                <use transform="matrix(0.06172839506172839,0,0,0.06172839506172839,23.45679012345679,0)"
                    xlink:href="#v" />
            </g>
            <path fill="#333" d="M24 0v-261h32V0H24" id="y" />
            <path fill="#333" d="M24-231v-30h32v30H24zM24 0v-190h32V0H24" id="z" />
            <path fill="#333"
                d="M117-194c89-4 53 116 60 194h-32v-121c0-31-8-49-39-48C34-167 62-67 57 0H25l-1-190h30c1 10-1 24 2 32 11-22 29-35 61-36"
                id="A" />
            <path fill="#333" d="M59-47c-2 24 18 29 38 22v24C64 9 27 4 27-40v-127H5v-23h24l9-43h21v43h35v23H59v120"
                id="B" />
            <g id="m">
                <use transform="matrix(0.06172839506172839,0,0,0.06172839506172839,0,0)" xlink:href="#x" />
                <use transform="matrix(0.06172839506172839,0,0,0.06172839506172839,11.11111111111111,0)"
                    xlink:href="#y" />
                <use transform="matrix(0.06172839506172839,0,0,0.06172839506172839,15.987654320987653,0)"
                    xlink:href="#z" />
                <use transform="matrix(0.06172839506172839,0,0,0.06172839506172839,20.864197530864196,0)"
                    xlink:href="#t" />
                <use transform="matrix(0.06172839506172839,0,0,0.06172839506172839,33.20987654320987,0)"
                    xlink:href="#A" />
                <use transform="matrix(0.06172839506172839,0,0,0.06172839506172839,45.55555555555555,0)"
                    xlink:href="#B" />
                <use transform="matrix(0.06172839506172839,0,0,0.06172839506172839,51.72839506172839,0)"
                    xlink:href="#r" />
            </g>
            <g id="n">
                <use transform="matrix(0.06172839506172839,0,0,0.06172839506172839,0,0)" xlink:href="#x" />
                <use transform="matrix(0.06172839506172839,0,0,0.06172839506172839,11.11111111111111,0)"
                    xlink:href="#y" />
                <use transform="matrix(0.06172839506172839,0,0,0.06172839506172839,15.987654320987653,0)"
                    xlink:href="#z" />
                <use transform="matrix(0.06172839506172839,0,0,0.06172839506172839,20.864197530864196,0)"
                    xlink:href="#t" />
                <use transform="matrix(0.06172839506172839,0,0,0.06172839506172839,33.20987654320987,0)"
                    xlink:href="#A" />
                <use transform="matrix(0.06172839506172839,0,0,0.06172839506172839,45.55555555555555,0)"
                    xlink:href="#B" />
                <use transform="matrix(0.06172839506172839,0,0,0.06172839506172839,51.72839506172839,0)"
                    xlink:href="#s" />
            </g>
            <g id="o">
                <use transform="matrix(0.06172839506172839,0,0,0.06172839506172839,0,0)" xlink:href="#x" />
                <use transform="matrix(0.06172839506172839,0,0,0.06172839506172839,11.11111111111111,0)"
                    xlink:href="#y" />
                <use transform="matrix(0.06172839506172839,0,0,0.06172839506172839,15.987654320987653,0)"
                    xlink:href="#z" />
                <use transform="matrix(0.06172839506172839,0,0,0.06172839506172839,20.864197530864196,0)"
                    xlink:href="#t" />
                <use transform="matrix(0.06172839506172839,0,0,0.06172839506172839,33.20987654320987,0)"
                    xlink:href="#A" />
                <use transform="matrix(0.06172839506172839,0,0,0.06172839506172839,45.55555555555555,0)"
                    xlink:href="#B" />
                <use transform="matrix(0.06172839506172839,0,0,0.06172839506172839,51.72839506172839,0)"
                    xlink:href="#u" />
            </g>
            <g id="p">
                <use transform="matrix(0.06172839506172839,0,0,0.06172839506172839,0,0)" xlink:href="#x" />
                <use transform="matrix(0.06172839506172839,0,0,0.06172839506172839,11.11111111111111,0)"
                    xlink:href="#y" />
                <use transform="matrix(0.06172839506172839,0,0,0.06172839506172839,15.987654320987653,0)"
                    xlink:href="#z" />
                <use transform="matrix(0.06172839506172839,0,0,0.06172839506172839,20.864197530864196,0)"
                    xlink:href="#t" />
                <use transform="matrix(0.06172839506172839,0,0,0.06172839506172839,33.20987654320987,0)"
                    xlink:href="#A" />
                <use transform="matrix(0.06172839506172839,0,0,0.06172839506172839,45.55555555555555,0)"
                    xlink:href="#B" />
                <use transform="matrix(0.06172839506172839,0,0,0.06172839506172839,51.72839506172839,0)"
                    xlink:href="#v" />
            </g>
        </defs>
    </g>
</svg>